G04 #@! TF.GenerationSoftware,KiCad,Pcbnew,(6.0.4)*
G04 #@! TF.CreationDate,2023-02-11T01:04:34-08:00*
G04 #@! TF.ProjectId,rectifier_1,72656374-6966-4696-9572-5f312e6b6963,1*
G04 #@! TF.SameCoordinates,Original*
G04 #@! TF.FileFunction,Legend,Top*
G04 #@! TF.FilePolarity,Positive*
%FSLAX46Y46*%
G04 Gerber Fmt 4.6, Leading zero omitted, Abs format (unit mm)*
G04 Created by KiCad (PCBNEW (6.0.4)) date 2023-02-11 01:04:34*
%MOMM*%
%LPD*%
G01*
G04 APERTURE LIST*
%ADD10C,0.120000*%
G04 APERTURE END LIST*
G04 #@! TO.C,G\u002A\u002A\u002A*
G36*
X129754950Y-99859465D02*
G01*
X129771721Y-99926638D01*
X129787604Y-99989810D01*
X129802281Y-100047745D01*
X129815433Y-100099205D01*
X129826741Y-100142955D01*
X129835887Y-100177757D01*
X129842552Y-100202376D01*
X129846419Y-100215574D01*
X129847179Y-100217482D01*
X129849742Y-100212116D01*
X129855413Y-100194925D01*
X129863812Y-100167266D01*
X129874558Y-100130498D01*
X129887271Y-100085979D01*
X129901569Y-100035068D01*
X129917072Y-99979121D01*
X129933401Y-99919499D01*
X129950173Y-99857558D01*
X129967009Y-99794658D01*
X129983528Y-99732156D01*
X129988535Y-99713033D01*
X129989861Y-99705962D01*
X129987775Y-99701486D01*
X129979897Y-99699011D01*
X129963849Y-99697946D01*
X129937249Y-99697696D01*
X129926970Y-99697691D01*
X129861396Y-99697691D01*
X129861396Y-99506765D01*
X130277342Y-99506765D01*
X130277342Y-99697691D01*
X130157597Y-99697691D01*
X129932993Y-100550035D01*
X129782357Y-100550038D01*
X129631720Y-100550040D01*
X129568208Y-100299449D01*
X129553823Y-100242915D01*
X129540347Y-100190385D01*
X129528174Y-100143365D01*
X129517701Y-100103360D01*
X129509320Y-100071876D01*
X129503427Y-100050418D01*
X129500416Y-100040493D01*
X129500262Y-100040139D01*
X129497623Y-100044542D01*
X129491975Y-100060799D01*
X129483712Y-100087559D01*
X129473226Y-100123468D01*
X129460909Y-100167176D01*
X129447154Y-100217329D01*
X129432354Y-100272575D01*
X129428010Y-100289025D01*
X129360191Y-100546630D01*
X129208783Y-100548465D01*
X129057374Y-100550299D01*
X129050574Y-100524599D01*
X129047726Y-100513465D01*
X129041885Y-100490337D01*
X129033364Y-100456453D01*
X129022472Y-100413050D01*
X129009519Y-100361365D01*
X128994815Y-100302637D01*
X128978671Y-100238103D01*
X128961397Y-100169001D01*
X128943734Y-100098295D01*
X128843693Y-99697691D01*
X128722658Y-99697691D01*
X128722658Y-99506765D01*
X129282183Y-99506765D01*
X129278389Y-99694281D01*
X129211906Y-99696233D01*
X129183648Y-99697526D01*
X129161319Y-99699428D01*
X129147853Y-99701641D01*
X129145240Y-99703052D01*
X129146736Y-99711584D01*
X129151113Y-99731331D01*
X129157940Y-99760566D01*
X129166788Y-99797560D01*
X129177226Y-99840585D01*
X129188825Y-99887915D01*
X129201154Y-99937821D01*
X129213782Y-99988575D01*
X129226281Y-100038451D01*
X129238220Y-100085719D01*
X129249168Y-100128653D01*
X129258695Y-100165525D01*
X129266372Y-100194608D01*
X129271768Y-100214172D01*
X129274454Y-100222491D01*
X129274605Y-100222663D01*
X129277031Y-100216259D01*
X129282625Y-100197874D01*
X129291051Y-100168710D01*
X129301976Y-100129967D01*
X129315066Y-100082846D01*
X129329985Y-100028546D01*
X129346399Y-99968268D01*
X129363974Y-99903213D01*
X129373867Y-99866381D01*
X129469344Y-99510174D01*
X129568226Y-99508297D01*
X129667108Y-99506419D01*
X129754950Y-99859465D01*
G37*
G36*
X127797519Y-98071146D02*
G01*
X127793769Y-98074897D01*
X127790018Y-98071146D01*
X127793769Y-98067395D01*
X127797519Y-98071146D01*
G37*
G36*
X128037567Y-98896308D02*
G01*
X128033816Y-98900059D01*
X128030065Y-98896308D01*
X128033816Y-98892558D01*
X128037567Y-98896308D01*
G37*
G36*
X128105080Y-98056143D02*
G01*
X128101329Y-98059894D01*
X128097578Y-98056143D01*
X128101329Y-98052392D01*
X128105080Y-98056143D01*
G37*
G36*
X127840175Y-98492324D02*
G01*
X127838777Y-98494979D01*
X127831709Y-98502143D01*
X127830391Y-98502481D01*
X127829879Y-98497635D01*
X127831276Y-98494979D01*
X127838344Y-98487816D01*
X127839663Y-98487478D01*
X127840175Y-98492324D01*
G37*
G36*
X127835027Y-98693769D02*
G01*
X127831276Y-98697519D01*
X127827525Y-98693769D01*
X127831276Y-98690018D01*
X127835027Y-98693769D01*
G37*
G36*
X127099882Y-98296190D02*
G01*
X127096131Y-98299941D01*
X127092381Y-98296190D01*
X127096131Y-98292440D01*
X127099882Y-98296190D01*
G37*
G36*
X127437448Y-99038837D02*
G01*
X127433698Y-99042587D01*
X127429947Y-99038837D01*
X127433698Y-99035086D01*
X127437448Y-99038837D01*
G37*
G36*
X127985056Y-98941317D02*
G01*
X127981306Y-98945068D01*
X127977555Y-98941317D01*
X127981306Y-98937567D01*
X127985056Y-98941317D01*
G37*
G36*
X127263755Y-98993111D02*
G01*
X127271809Y-99000665D01*
X127270157Y-99005007D01*
X127269108Y-99005080D01*
X127262763Y-98999752D01*
X127260447Y-98996419D01*
X127259563Y-98991286D01*
X127263755Y-98993111D01*
G37*
G36*
X128285115Y-98836297D02*
G01*
X128281365Y-98840047D01*
X128277614Y-98836297D01*
X128281365Y-98832546D01*
X128285115Y-98836297D01*
G37*
G36*
X127572475Y-99143857D02*
G01*
X127568724Y-99147608D01*
X127564974Y-99143857D01*
X127568724Y-99140106D01*
X127572475Y-99143857D01*
G37*
G36*
X127017366Y-98536238D02*
G01*
X127013615Y-98539988D01*
X127009864Y-98536238D01*
X127013615Y-98532487D01*
X127017366Y-98536238D01*
G37*
G36*
X127512463Y-97996131D02*
G01*
X127508713Y-97999882D01*
X127504962Y-97996131D01*
X127508713Y-97992381D01*
X127512463Y-97996131D01*
G37*
G36*
X128232605Y-98161164D02*
G01*
X128228854Y-98164915D01*
X128225104Y-98161164D01*
X128228854Y-98157413D01*
X128232605Y-98161164D01*
G37*
G36*
X127602481Y-98078648D02*
G01*
X127598730Y-98082398D01*
X127594979Y-98078648D01*
X127598730Y-98074897D01*
X127602481Y-98078648D01*
G37*
G36*
X127647490Y-99121353D02*
G01*
X127643739Y-99125104D01*
X127639988Y-99121353D01*
X127643739Y-99117602D01*
X127647490Y-99121353D01*
G37*
G36*
X128035213Y-98964917D02*
G01*
X128033816Y-98967573D01*
X128026748Y-98974736D01*
X128025429Y-98975074D01*
X128024917Y-98970228D01*
X128026314Y-98967573D01*
X128033382Y-98960409D01*
X128034701Y-98960071D01*
X128035213Y-98964917D01*
G37*
G36*
X127990204Y-98274781D02*
G01*
X127988807Y-98277437D01*
X127981739Y-98284601D01*
X127980420Y-98284938D01*
X127979908Y-98280093D01*
X127981306Y-98277437D01*
X127988374Y-98270273D01*
X127989692Y-98269935D01*
X127990204Y-98274781D01*
G37*
G36*
X127790018Y-97981128D02*
G01*
X127786267Y-97984879D01*
X127782516Y-97981128D01*
X127786267Y-97977378D01*
X127790018Y-97981128D01*
G37*
G36*
X127572475Y-99158860D02*
G01*
X127568724Y-99162611D01*
X127564974Y-99158860D01*
X127568724Y-99155109D01*
X127572475Y-99158860D01*
G37*
G36*
X128045068Y-98213674D02*
G01*
X128041317Y-98217425D01*
X128037567Y-98213674D01*
X128041317Y-98209923D01*
X128045068Y-98213674D01*
G37*
G36*
X127512463Y-98116155D02*
G01*
X127508713Y-98119906D01*
X127504962Y-98116155D01*
X127508713Y-98112404D01*
X127512463Y-98116155D01*
G37*
G36*
X128247608Y-98738777D02*
G01*
X128243857Y-98742528D01*
X128240106Y-98738777D01*
X128243857Y-98735027D01*
X128247608Y-98738777D01*
G37*
G36*
X128045068Y-98881306D02*
G01*
X128041317Y-98885056D01*
X128037567Y-98881306D01*
X128041317Y-98877555D01*
X128045068Y-98881306D01*
G37*
G36*
X127392440Y-98978825D02*
G01*
X127388689Y-98982575D01*
X127384938Y-98978825D01*
X127388689Y-98975074D01*
X127392440Y-98978825D01*
G37*
G36*
X128292617Y-98633757D02*
G01*
X128288866Y-98637508D01*
X128285115Y-98633757D01*
X128288866Y-98630006D01*
X128292617Y-98633757D01*
G37*
G36*
X128045068Y-98071146D02*
G01*
X128041317Y-98074897D01*
X128037567Y-98071146D01*
X128041317Y-98067395D01*
X128045068Y-98071146D01*
G37*
G36*
X127204903Y-98393710D02*
G01*
X127201152Y-98397460D01*
X127197401Y-98393710D01*
X127201152Y-98389959D01*
X127204903Y-98393710D01*
G37*
G36*
X128412640Y-99308890D02*
G01*
X128408890Y-99312640D01*
X128405139Y-99308890D01*
X128408890Y-99305139D01*
X128412640Y-99308890D01*
G37*
G36*
X127549971Y-98408713D02*
G01*
X127546220Y-98412463D01*
X127542469Y-98408713D01*
X127546220Y-98404962D01*
X127549971Y-98408713D01*
G37*
G36*
X127872534Y-99256379D02*
G01*
X127868783Y-99260130D01*
X127865033Y-99256379D01*
X127868783Y-99252629D01*
X127872534Y-99256379D01*
G37*
G36*
X127479957Y-98009884D02*
G01*
X127478927Y-98014344D01*
X127474956Y-98014885D01*
X127468781Y-98012140D01*
X127469955Y-98009884D01*
X127478857Y-98008986D01*
X127479957Y-98009884D01*
G37*
G36*
X128262611Y-98723775D02*
G01*
X128258860Y-98727525D01*
X128255109Y-98723775D01*
X128258860Y-98720024D01*
X128262611Y-98723775D01*
G37*
G36*
X127122386Y-98566244D02*
G01*
X127118636Y-98569994D01*
X127114885Y-98566244D01*
X127118636Y-98562493D01*
X127122386Y-98566244D01*
G37*
G36*
X127850030Y-98041140D02*
G01*
X127846279Y-98044891D01*
X127842528Y-98041140D01*
X127846279Y-98037389D01*
X127850030Y-98041140D01*
G37*
G36*
X128083948Y-98927163D02*
G01*
X128086991Y-98935861D01*
X128086006Y-98938085D01*
X128079848Y-98944636D01*
X128077619Y-98936918D01*
X128077574Y-98934146D01*
X128080885Y-98926623D01*
X128083948Y-98927163D01*
G37*
G36*
X127572475Y-98498730D02*
G01*
X127568724Y-98502481D01*
X127564974Y-98498730D01*
X127568724Y-98494979D01*
X127572475Y-98498730D01*
G37*
G36*
X127782516Y-98648760D02*
G01*
X127778766Y-98652511D01*
X127775015Y-98648760D01*
X127778766Y-98645009D01*
X127782516Y-98648760D01*
G37*
G36*
X127639988Y-99218872D02*
G01*
X127636238Y-99222623D01*
X127632487Y-99218872D01*
X127636238Y-99215121D01*
X127639988Y-99218872D01*
G37*
G36*
X127183784Y-99056766D02*
G01*
X127184541Y-99039789D01*
X127184372Y-99025476D01*
X127287985Y-99025476D01*
X127288483Y-99034699D01*
X127290576Y-99039998D01*
X127294426Y-99047024D01*
X127300030Y-99051860D01*
X127309942Y-99054919D01*
X127326715Y-99056609D01*
X127352903Y-99057341D01*
X127391061Y-99057525D01*
X127399775Y-99057532D01*
X127500880Y-99057590D01*
X127437347Y-98993726D01*
X127373814Y-98929861D01*
X127328148Y-98976192D01*
X127306124Y-98999099D01*
X127293301Y-99014568D01*
X127287985Y-99025476D01*
X127184372Y-99025476D01*
X127184266Y-99016451D01*
X127172792Y-98996882D01*
X127172372Y-98996403D01*
X127143450Y-98956958D01*
X127115358Y-98906293D01*
X127089771Y-98848165D01*
X127068363Y-98786335D01*
X127054191Y-98731276D01*
X127045255Y-98691964D01*
X127040900Y-98676917D01*
X127061961Y-98676917D01*
X127065205Y-98708701D01*
X127072523Y-98746086D01*
X127083273Y-98786357D01*
X127096814Y-98826797D01*
X127112505Y-98864688D01*
X127129704Y-98897315D01*
X127131404Y-98900059D01*
X127141953Y-98917295D01*
X127148271Y-98928523D01*
X127148933Y-98930065D01*
X127156615Y-98948199D01*
X127165978Y-98955854D01*
X127170057Y-98955075D01*
X127174768Y-98953915D01*
X127173243Y-98956146D01*
X127173729Y-98965206D01*
X127180930Y-98979821D01*
X127191347Y-98994564D01*
X127201478Y-99004003D01*
X127204800Y-99005080D01*
X127216850Y-99002626D01*
X127223043Y-99000527D01*
X127227894Y-98996583D01*
X127231248Y-98987571D01*
X127233361Y-98971174D01*
X127234329Y-98948804D01*
X127251063Y-98948804D01*
X127251921Y-98978688D01*
X127254250Y-98997014D01*
X127258172Y-99005476D01*
X127258788Y-99005930D01*
X127269220Y-99003784D01*
X127288054Y-98990349D01*
X127314497Y-98966192D01*
X127315399Y-98965307D01*
X127362666Y-98918910D01*
X127361952Y-98918204D01*
X127384613Y-98918204D01*
X127523419Y-99057590D01*
X127692499Y-99057590D01*
X127707502Y-99057590D01*
X127794072Y-99057590D01*
X127911770Y-99057590D01*
X128007550Y-99057590D01*
X128047081Y-99057438D01*
X128074124Y-99056729D01*
X128091194Y-99055085D01*
X128100805Y-99052126D01*
X128105470Y-99047475D01*
X128107256Y-99042577D01*
X128107692Y-99032197D01*
X128103221Y-99032484D01*
X128098869Y-99032692D01*
X128100853Y-99028355D01*
X128099120Y-99018337D01*
X128088490Y-99002704D01*
X128072221Y-98984639D01*
X128053569Y-98967324D01*
X128035790Y-98953942D01*
X128022139Y-98947677D01*
X128018532Y-98947889D01*
X128010684Y-98955398D01*
X128011394Y-98960204D01*
X128011376Y-98966033D01*
X128008695Y-98965883D01*
X128000477Y-98970029D01*
X127984970Y-98982865D01*
X127964977Y-99001984D01*
X127956491Y-99010706D01*
X127911770Y-99057590D01*
X127794072Y-99057590D01*
X127832430Y-99057300D01*
X127859070Y-99056103D01*
X127877272Y-99053510D01*
X127890316Y-99049031D01*
X127901482Y-99042176D01*
X127902549Y-99041394D01*
X127915721Y-99029003D01*
X127920290Y-99019075D01*
X127919840Y-99017731D01*
X127920177Y-99013908D01*
X127923885Y-99015616D01*
X127931311Y-99014926D01*
X127932546Y-99009273D01*
X127935410Y-98999990D01*
X127938172Y-98999338D01*
X127945852Y-98995269D01*
X127960604Y-98982912D01*
X127979246Y-98964930D01*
X127979424Y-98964749D01*
X128015050Y-98928400D01*
X128012512Y-98925902D01*
X128044969Y-98925902D01*
X128049668Y-98936675D01*
X128062814Y-98953342D01*
X128084012Y-98976214D01*
X128106209Y-98998018D01*
X128122761Y-99011553D01*
X128131921Y-99015457D01*
X128133021Y-99014410D01*
X128140022Y-99008323D01*
X128143228Y-99009227D01*
X128145994Y-99003938D01*
X128148166Y-98985748D01*
X128149584Y-98956754D01*
X128150089Y-98919256D01*
X128149949Y-98907801D01*
X128165092Y-98907801D01*
X128165356Y-98948481D01*
X128166347Y-98976641D01*
X128168357Y-98994755D01*
X128171683Y-99005302D01*
X128176620Y-99010756D01*
X128177406Y-99011226D01*
X128191669Y-99011938D01*
X128207066Y-99004016D01*
X128216794Y-98991555D01*
X128217602Y-98987018D01*
X128222290Y-98976727D01*
X128232157Y-98964298D01*
X128241385Y-98951686D01*
X128254104Y-98930747D01*
X128268638Y-98904720D01*
X128283310Y-98876845D01*
X128296440Y-98850360D01*
X128306352Y-98828507D01*
X128311368Y-98814523D01*
X128311384Y-98811306D01*
X128312218Y-98803371D01*
X128315712Y-98798078D01*
X128320707Y-98786439D01*
X128326492Y-98764856D01*
X128332284Y-98737639D01*
X128337300Y-98709099D01*
X128340760Y-98683547D01*
X128341880Y-98665295D01*
X128340901Y-98659242D01*
X128331887Y-98652823D01*
X128317764Y-98656107D01*
X128297419Y-98669752D01*
X128269736Y-98694412D01*
X128252829Y-98711043D01*
X128229946Y-98735057D01*
X128212397Y-98755409D01*
X128202100Y-98769739D01*
X128200495Y-98775431D01*
X128200124Y-98779221D01*
X128195098Y-98778785D01*
X128186417Y-98781505D01*
X128185907Y-98786219D01*
X128184030Y-98792726D01*
X128181067Y-98791888D01*
X128175018Y-98791311D01*
X128170609Y-98799152D01*
X128167631Y-98816911D01*
X128165879Y-98846088D01*
X128165146Y-98888182D01*
X128165092Y-98907801D01*
X128149949Y-98907801D01*
X128149655Y-98883644D01*
X128148471Y-98854200D01*
X128146711Y-98833757D01*
X128144549Y-98825148D01*
X128144276Y-98825044D01*
X128135618Y-98830064D01*
X128121938Y-98842693D01*
X128106461Y-98859287D01*
X128092412Y-98876203D01*
X128083015Y-98889795D01*
X128081270Y-98896253D01*
X128080161Y-98899368D01*
X128075074Y-98898809D01*
X128066393Y-98901528D01*
X128065883Y-98906243D01*
X128064544Y-98913165D01*
X128062132Y-98912656D01*
X128052881Y-98914310D01*
X128047334Y-98918865D01*
X128044969Y-98925902D01*
X128012512Y-98925902D01*
X127979696Y-98893600D01*
X127960900Y-98876173D01*
X127946014Y-98864330D01*
X127938444Y-98860676D01*
X127932765Y-98856979D01*
X127932546Y-98855018D01*
X127927553Y-98846501D01*
X127914016Y-98830266D01*
X127894094Y-98808469D01*
X127869947Y-98783267D01*
X127843736Y-98756817D01*
X127817620Y-98731277D01*
X127793760Y-98708802D01*
X127774315Y-98691551D01*
X127761447Y-98681680D01*
X127757558Y-98680282D01*
X127753553Y-98680089D01*
X127754810Y-98677363D01*
X127752613Y-98668277D01*
X127741843Y-98653531D01*
X127733465Y-98644726D01*
X127707502Y-98619562D01*
X127707502Y-99057590D01*
X127692499Y-99057590D01*
X127692300Y-98838172D01*
X127692103Y-98619562D01*
X127692102Y-98618754D01*
X127643541Y-98669868D01*
X127622656Y-98691469D01*
X127606273Y-98707687D01*
X127596619Y-98716357D01*
X127594979Y-98717078D01*
X127590167Y-98720105D01*
X127577390Y-98731616D01*
X127559140Y-98749334D01*
X127553721Y-98754763D01*
X127534191Y-98775271D01*
X127519654Y-98792099D01*
X127512713Y-98802193D01*
X127512463Y-98803197D01*
X127508020Y-98808446D01*
X127506837Y-98808215D01*
X127499463Y-98812346D01*
X127483861Y-98824944D01*
X127462482Y-98843936D01*
X127442912Y-98862296D01*
X127384613Y-98918204D01*
X127361952Y-98918204D01*
X127253662Y-98811172D01*
X127251553Y-98905663D01*
X127251063Y-98948804D01*
X127234329Y-98948804D01*
X127234490Y-98945076D01*
X127234891Y-98906959D01*
X127234909Y-98893521D01*
X127234909Y-98791070D01*
X127156525Y-98713610D01*
X127128417Y-98686649D01*
X127103677Y-98664444D01*
X127084370Y-98648733D01*
X127072559Y-98641252D01*
X127070258Y-98641022D01*
X127063431Y-98653452D01*
X127061961Y-98676917D01*
X127040900Y-98676917D01*
X127037402Y-98664831D01*
X127029665Y-98647197D01*
X127021078Y-98636379D01*
X127019544Y-98635088D01*
X127007578Y-98618122D01*
X127007307Y-98616878D01*
X127101744Y-98616878D01*
X127105004Y-98628771D01*
X127116941Y-98646497D01*
X127138565Y-98671360D01*
X127165629Y-98699395D01*
X127190682Y-98724454D01*
X127211619Y-98745102D01*
X127226351Y-98759298D01*
X127232788Y-98765004D01*
X127232877Y-98765033D01*
X127233693Y-98758036D01*
X127234353Y-98739065D01*
X127234782Y-98711146D01*
X127234909Y-98682516D01*
X127234909Y-98600000D01*
X127168992Y-98600000D01*
X127137421Y-98600219D01*
X127117878Y-98601374D01*
X127107388Y-98604212D01*
X127102975Y-98609478D01*
X127101744Y-98616878D01*
X127007307Y-98616878D01*
X127003365Y-98598769D01*
X127249309Y-98598769D01*
X127250250Y-98691277D01*
X127251191Y-98783786D01*
X127278025Y-98811606D01*
X127294666Y-98826539D01*
X127308090Y-98834518D01*
X127313018Y-98834783D01*
X127317116Y-98834131D01*
X127315380Y-98836513D01*
X127317108Y-98844747D01*
X127327441Y-98859725D01*
X127341192Y-98875090D01*
X127353553Y-98888140D01*
X127362812Y-98896847D01*
X127371193Y-98900338D01*
X127380917Y-98897739D01*
X127394208Y-98888176D01*
X127413286Y-98870776D01*
X127440375Y-98844665D01*
X127455413Y-98830183D01*
X127477876Y-98807797D01*
X127495260Y-98788863D01*
X127505299Y-98775940D01*
X127506837Y-98772046D01*
X127509572Y-98766664D01*
X127511212Y-98766908D01*
X127519581Y-98762897D01*
X127534835Y-98750220D01*
X127554419Y-98731580D01*
X127575777Y-98709680D01*
X127596352Y-98687224D01*
X127613589Y-98666912D01*
X127624933Y-98651450D01*
X127627849Y-98643573D01*
X127627199Y-98638771D01*
X127631902Y-98640897D01*
X127640989Y-98639842D01*
X127653659Y-98632344D01*
X127664918Y-98622346D01*
X127669770Y-98613790D01*
X127668873Y-98611718D01*
X127660987Y-98610937D01*
X127640039Y-98609879D01*
X127607964Y-98608613D01*
X127575335Y-98607502D01*
X127722543Y-98607502D01*
X127827154Y-98713206D01*
X127867015Y-98752744D01*
X127898944Y-98782835D01*
X127922379Y-98802987D01*
X127936760Y-98812705D01*
X127940817Y-98813317D01*
X127946316Y-98812015D01*
X127944148Y-98816977D01*
X127946285Y-98827337D01*
X127959572Y-98845785D01*
X127982372Y-98870385D01*
X128002510Y-98890597D01*
X128017914Y-98906012D01*
X128026092Y-98914140D01*
X128026786Y-98914801D01*
X128031968Y-98909987D01*
X128045701Y-98896707D01*
X128065854Y-98877030D01*
X128088673Y-98854628D01*
X128150089Y-98794194D01*
X128150089Y-98750983D01*
X128166088Y-98750983D01*
X128166644Y-98767879D01*
X128167493Y-98772534D01*
X128174332Y-98767955D01*
X128187506Y-98756650D01*
X128190674Y-98753747D01*
X128202848Y-98739131D01*
X128206166Y-98727682D01*
X128205613Y-98726333D01*
X128204637Y-98721052D01*
X128207379Y-98722093D01*
X128215733Y-98719355D01*
X128231838Y-98708253D01*
X128252729Y-98690921D01*
X128260776Y-98683637D01*
X128284531Y-98660576D01*
X128298131Y-98644207D01*
X128303326Y-98632087D01*
X128302900Y-98624830D01*
X128299786Y-98617137D01*
X128293302Y-98612504D01*
X128280323Y-98610261D01*
X128257722Y-98609742D01*
X128233784Y-98610059D01*
X128168842Y-98611252D01*
X128166713Y-98691893D01*
X128166101Y-98724634D01*
X128166088Y-98750983D01*
X128150089Y-98750983D01*
X128150089Y-98607502D01*
X127722543Y-98607502D01*
X127575335Y-98607502D01*
X127566701Y-98607208D01*
X127518184Y-98605736D01*
X127464351Y-98604266D01*
X127457776Y-98604097D01*
X127249309Y-98598769D01*
X127003365Y-98598769D01*
X127002628Y-98595381D01*
X127002847Y-98592499D01*
X127720455Y-98592499D01*
X128150089Y-98592499D01*
X128150089Y-98591868D01*
X128165092Y-98591868D01*
X128223228Y-98594424D01*
X128251510Y-98595822D01*
X128273743Y-98597208D01*
X128285866Y-98598321D01*
X128286727Y-98598491D01*
X128293959Y-98593957D01*
X128300246Y-98584758D01*
X128302553Y-98577323D01*
X128300461Y-98568635D01*
X128292488Y-98556637D01*
X128277148Y-98539274D01*
X128252957Y-98514487D01*
X128240679Y-98502242D01*
X128214866Y-98476890D01*
X128192946Y-98455906D01*
X128177053Y-98441295D01*
X128169320Y-98435059D01*
X128169024Y-98434968D01*
X128167406Y-98441951D01*
X128166112Y-98460831D01*
X128165296Y-98488503D01*
X128165092Y-98513418D01*
X128165092Y-98591868D01*
X128150089Y-98591868D01*
X128150089Y-98412194D01*
X128089305Y-98352141D01*
X128028522Y-98292088D01*
X127997412Y-98320188D01*
X127966015Y-98349141D01*
X127938623Y-98375522D01*
X127916723Y-98397776D01*
X127901800Y-98414350D01*
X127895341Y-98423689D01*
X127897304Y-98424894D01*
X127906550Y-98423849D01*
X127906115Y-98427751D01*
X127895439Y-98433886D01*
X127892598Y-98433753D01*
X127884445Y-98438196D01*
X127867802Y-98451512D01*
X127844733Y-98471908D01*
X127817299Y-98497592D01*
X127802121Y-98512319D01*
X127720455Y-98592499D01*
X127002847Y-98592499D01*
X127004411Y-98571935D01*
X127006740Y-98566538D01*
X127101147Y-98566538D01*
X127103904Y-98576784D01*
X127118379Y-98582372D01*
X127144718Y-98584650D01*
X127171519Y-98584997D01*
X127234909Y-98584997D01*
X127234909Y-98584380D01*
X127249235Y-98584380D01*
X127311461Y-98586912D01*
X127351048Y-98588254D01*
X127396074Y-98589334D01*
X127444251Y-98590148D01*
X127493291Y-98590688D01*
X127540903Y-98590949D01*
X127584800Y-98590923D01*
X127622693Y-98590605D01*
X127652293Y-98589988D01*
X127671311Y-98589066D01*
X127677496Y-98587929D01*
X127672872Y-98580934D01*
X127707502Y-98580934D01*
X127773140Y-98516324D01*
X127804457Y-98485648D01*
X127837493Y-98453538D01*
X127867731Y-98424370D01*
X127885662Y-98407245D01*
X127906934Y-98386044D01*
X127923168Y-98367913D01*
X127931795Y-98355800D01*
X127932546Y-98353421D01*
X127936085Y-98347073D01*
X127938530Y-98347763D01*
X127946285Y-98344620D01*
X127961062Y-98332871D01*
X127979773Y-98314995D01*
X127981212Y-98313514D01*
X128000081Y-98293503D01*
X128009668Y-98281097D01*
X128010157Y-98278879D01*
X128045068Y-98278879D01*
X128050231Y-98288551D01*
X128063157Y-98302798D01*
X128080000Y-98318255D01*
X128096916Y-98331559D01*
X128110059Y-98339346D01*
X128114763Y-98339851D01*
X128118812Y-98340053D01*
X128117318Y-98343355D01*
X128118513Y-98353762D01*
X128128308Y-98367879D01*
X128129286Y-98368894D01*
X128146338Y-98386208D01*
X128148283Y-98300280D01*
X128165092Y-98300280D01*
X128165394Y-98343609D01*
X128166467Y-98374375D01*
X128168561Y-98395009D01*
X128171925Y-98407942D01*
X128176808Y-98415605D01*
X128176949Y-98415747D01*
X128189437Y-98423176D01*
X128196861Y-98422625D01*
X128201326Y-98422328D01*
X128199402Y-98426570D01*
X128202151Y-98435816D01*
X128215550Y-98453429D01*
X128238650Y-98478256D01*
X128255845Y-98495242D01*
X128280702Y-98518866D01*
X128301586Y-98538058D01*
X128316187Y-98550742D01*
X128322088Y-98554876D01*
X128331454Y-98551255D01*
X128336583Y-98548293D01*
X128341763Y-98536795D01*
X128341842Y-98514282D01*
X128337586Y-98483547D01*
X128329759Y-98447386D01*
X128319126Y-98408591D01*
X128306453Y-98369956D01*
X128292505Y-98334275D01*
X128278048Y-98304341D01*
X128263941Y-98283063D01*
X128257255Y-98273030D01*
X128257941Y-98269935D01*
X128256437Y-98264535D01*
X128247579Y-98250356D01*
X128233266Y-98230426D01*
X128232747Y-98229737D01*
X128215099Y-98207752D01*
X128202244Y-98196114D01*
X128191015Y-98192456D01*
X128183744Y-98193104D01*
X128165092Y-98196669D01*
X128165092Y-98300280D01*
X128148283Y-98300280D01*
X128148447Y-98293048D01*
X128148726Y-98255299D01*
X128147848Y-98224060D01*
X128145959Y-98202190D01*
X128143317Y-98192649D01*
X128135494Y-98194457D01*
X128120400Y-98204346D01*
X128101155Y-98219579D01*
X128080880Y-98237415D01*
X128062696Y-98255118D01*
X128049723Y-98269946D01*
X128045068Y-98278879D01*
X128010157Y-98278879D01*
X128011374Y-98273364D01*
X128006598Y-98267373D01*
X128004129Y-98265490D01*
X127990323Y-98259347D01*
X127982792Y-98260082D01*
X127978861Y-98259828D01*
X127980519Y-98256205D01*
X127977863Y-98247226D01*
X127965609Y-98230314D01*
X127945352Y-98207530D01*
X127933177Y-98195034D01*
X127883712Y-98145569D01*
X127910042Y-98145569D01*
X127914902Y-98152815D01*
X127927154Y-98166031D01*
X127943300Y-98181901D01*
X127959844Y-98197110D01*
X127973290Y-98208341D01*
X127980141Y-98212279D01*
X127980292Y-98212188D01*
X127984874Y-98215301D01*
X127988246Y-98223160D01*
X127998055Y-98237417D01*
X128011180Y-98247360D01*
X128023065Y-98257021D01*
X128025083Y-98265440D01*
X128028013Y-98264202D01*
X128039521Y-98254195D01*
X128057566Y-98237249D01*
X128071149Y-98224055D01*
X128094708Y-98200421D01*
X128108884Y-98184365D01*
X128115331Y-98173301D01*
X128115702Y-98164643D01*
X128113119Y-98158417D01*
X128108710Y-98151856D01*
X128102016Y-98147382D01*
X128090414Y-98144597D01*
X128071278Y-98143105D01*
X128041986Y-98142509D01*
X128007297Y-98142410D01*
X127971072Y-98142639D01*
X127940970Y-98143264D01*
X127919780Y-98144195D01*
X127910292Y-98145342D01*
X127910042Y-98145569D01*
X127883712Y-98145569D01*
X127880553Y-98142410D01*
X127717318Y-98142410D01*
X127712440Y-98238054D01*
X127710664Y-98281352D01*
X127709173Y-98333829D01*
X127708096Y-98389662D01*
X127707565Y-98443029D01*
X127707532Y-98457316D01*
X127707502Y-98580934D01*
X127672872Y-98580934D01*
X127672387Y-98580201D01*
X127658366Y-98564342D01*
X127637394Y-98542262D01*
X127611429Y-98515872D01*
X127582433Y-98487082D01*
X127552363Y-98457803D01*
X127523182Y-98429944D01*
X127496847Y-98405417D01*
X127475319Y-98386131D01*
X127460557Y-98373997D01*
X127454709Y-98370757D01*
X127448621Y-98368855D01*
X127449221Y-98365052D01*
X127445923Y-98355719D01*
X127433953Y-98339700D01*
X127415823Y-98320309D01*
X127414014Y-98318549D01*
X127396118Y-98301803D01*
X127384114Y-98291603D01*
X127380194Y-98289789D01*
X127380508Y-98290478D01*
X127380855Y-98296664D01*
X127374140Y-98295327D01*
X127362881Y-98298341D01*
X127343351Y-98313047D01*
X127315302Y-98339638D01*
X127307058Y-98348034D01*
X127251553Y-98405184D01*
X127249235Y-98584380D01*
X127234909Y-98584380D01*
X127234909Y-98506232D01*
X127234630Y-98473897D01*
X127233876Y-98447995D01*
X127232772Y-98431625D01*
X127231766Y-98427466D01*
X127225581Y-98432462D01*
X127210954Y-98446107D01*
X127189994Y-98466385D01*
X127164812Y-98491281D01*
X127161732Y-98494358D01*
X127130206Y-98526673D01*
X127109963Y-98550284D01*
X127101147Y-98566538D01*
X127006740Y-98566538D01*
X127012645Y-98552854D01*
X127024629Y-98543815D01*
X127032881Y-98536425D01*
X127040254Y-98519401D01*
X127063328Y-98519401D01*
X127067087Y-98540215D01*
X127076792Y-98547484D01*
X127077176Y-98547490D01*
X127085138Y-98542535D01*
X127101579Y-98528947D01*
X127124309Y-98508642D01*
X127151136Y-98483533D01*
X127159209Y-98475781D01*
X127233472Y-98404072D01*
X127234493Y-98296699D01*
X127234560Y-98285414D01*
X127249912Y-98285414D01*
X127250090Y-98325532D01*
X127250795Y-98352687D01*
X127252279Y-98368914D01*
X127254797Y-98376249D01*
X127258603Y-98376729D01*
X127261081Y-98375024D01*
X127268455Y-98364377D01*
X127268025Y-98358917D01*
X127268386Y-98353856D01*
X127270464Y-98354141D01*
X127279760Y-98350499D01*
X127293988Y-98338918D01*
X127309151Y-98323520D01*
X127321256Y-98308424D01*
X127326307Y-98297751D01*
X127326177Y-98296671D01*
X127327330Y-98292789D01*
X127329371Y-98294384D01*
X127338139Y-98293925D01*
X127351274Y-98284851D01*
X127351371Y-98284760D01*
X127367677Y-98269442D01*
X127360669Y-98262434D01*
X127394662Y-98262434D01*
X127395053Y-98267394D01*
X127405505Y-98281592D01*
X127425134Y-98304002D01*
X127453056Y-98333598D01*
X127477096Y-98358078D01*
X127508409Y-98389707D01*
X127536477Y-98418388D01*
X127559389Y-98442142D01*
X127575236Y-98458992D01*
X127581770Y-98466471D01*
X127593294Y-98478727D01*
X127611335Y-98494777D01*
X127619759Y-98501601D01*
X127635850Y-98515080D01*
X127645073Y-98524499D01*
X127646014Y-98526809D01*
X127649407Y-98532810D01*
X127659380Y-98544931D01*
X127672005Y-98558856D01*
X127683351Y-98570267D01*
X127689488Y-98574847D01*
X127689665Y-98574762D01*
X127690077Y-98567307D01*
X127690792Y-98546738D01*
X127691756Y-98514938D01*
X127692913Y-98473791D01*
X127694209Y-98425182D01*
X127695591Y-98370994D01*
X127695912Y-98358078D01*
X127701242Y-98142410D01*
X127610202Y-98142410D01*
X127571648Y-98142566D01*
X127544860Y-98143413D01*
X127526605Y-98145523D01*
X127513648Y-98149466D01*
X127502754Y-98155814D01*
X127493309Y-98163039D01*
X127477463Y-98177927D01*
X127468333Y-98190852D01*
X127467455Y-98194295D01*
X127465144Y-98201352D01*
X127463088Y-98200556D01*
X127456273Y-98203054D01*
X127443646Y-98213382D01*
X127428935Y-98227790D01*
X127415870Y-98242530D01*
X127408180Y-98253852D01*
X127407443Y-98256495D01*
X127401253Y-98261577D01*
X127394662Y-98262434D01*
X127360669Y-98262434D01*
X127337918Y-98239683D01*
X127321082Y-98223426D01*
X127308779Y-98212617D01*
X127304617Y-98209923D01*
X127297701Y-98204907D01*
X127286264Y-98193045D01*
X127274305Y-98182551D01*
X127267770Y-98185078D01*
X127267543Y-98185590D01*
X127260078Y-98191676D01*
X127256772Y-98190774D01*
X127254060Y-98196112D01*
X127251915Y-98214411D01*
X127250484Y-98243636D01*
X127249915Y-98281750D01*
X127249912Y-98285414D01*
X127234560Y-98285414D01*
X127234746Y-98254346D01*
X127234388Y-98224652D01*
X127233151Y-98205277D01*
X127230770Y-98193881D01*
X127226978Y-98188124D01*
X127221862Y-98185757D01*
X127206056Y-98187839D01*
X127197180Y-98193984D01*
X127183553Y-98210566D01*
X127168716Y-98231535D01*
X127155534Y-98252444D01*
X127146873Y-98268841D01*
X127145027Y-98274936D01*
X127140878Y-98285107D01*
X127139265Y-98286188D01*
X127130108Y-98296291D01*
X127118530Y-98317751D01*
X127105716Y-98347362D01*
X127092853Y-98381919D01*
X127081128Y-98418218D01*
X127071727Y-98453052D01*
X127065837Y-98483216D01*
X127065559Y-98485285D01*
X127063328Y-98519401D01*
X127040254Y-98519401D01*
X127040641Y-98518508D01*
X127048692Y-98488109D01*
X127050928Y-98477928D01*
X127066670Y-98414379D01*
X127085407Y-98355902D01*
X127106055Y-98305309D01*
X127127535Y-98265406D01*
X127138820Y-98249635D01*
X127142301Y-98236149D01*
X127140583Y-98230881D01*
X127138620Y-98225127D01*
X127140831Y-98226444D01*
X127149603Y-98226134D01*
X127160313Y-98217992D01*
X127167033Y-98206968D01*
X127167395Y-98204265D01*
X127172384Y-98195011D01*
X127184545Y-98181446D01*
X127186055Y-98180005D01*
X127198240Y-98165332D01*
X127198146Y-98158543D01*
X127294920Y-98158543D01*
X127299777Y-98170597D01*
X127312358Y-98188020D01*
X127329677Y-98207766D01*
X127348748Y-98226793D01*
X127366587Y-98242054D01*
X127380209Y-98250504D01*
X127385445Y-98250868D01*
X127389022Y-98241699D01*
X127387652Y-98238252D01*
X127387079Y-98233423D01*
X127389792Y-98234542D01*
X127397820Y-98231489D01*
X127413270Y-98219583D01*
X127433427Y-98201031D01*
X127443708Y-98190692D01*
X127490453Y-98142410D01*
X127392687Y-98142410D01*
X127352864Y-98142512D01*
X127325647Y-98143083D01*
X127308641Y-98144517D01*
X127299449Y-98147211D01*
X127295675Y-98151559D01*
X127294922Y-98157957D01*
X127294920Y-98158543D01*
X127198146Y-98158543D01*
X127198093Y-98154685D01*
X127196985Y-98153160D01*
X127192576Y-98137487D01*
X127196989Y-98116964D01*
X127201441Y-98109546D01*
X127296714Y-98109546D01*
X127298193Y-98127407D01*
X127509520Y-98127407D01*
X127528723Y-98127407D01*
X127700000Y-98127407D01*
X127715003Y-98127407D01*
X127864721Y-98127407D01*
X127810630Y-98073021D01*
X127787544Y-98050513D01*
X127768171Y-98032932D01*
X127754991Y-98022454D01*
X127750774Y-98020511D01*
X127746619Y-98016720D01*
X127746884Y-98013188D01*
X127742096Y-98005106D01*
X127731881Y-98001414D01*
X127723735Y-98000892D01*
X127718748Y-98004261D01*
X127716147Y-98014352D01*
X127715157Y-98033996D01*
X127715003Y-98063123D01*
X127715003Y-98127407D01*
X127700000Y-98127407D01*
X127700000Y-98064458D01*
X127699767Y-98033704D01*
X127698479Y-98014735D01*
X127695257Y-98004334D01*
X127689220Y-97999284D01*
X127681504Y-97996866D01*
X127672353Y-97996271D01*
X127661893Y-98000151D01*
X127647992Y-98010073D01*
X127628518Y-98027606D01*
X127601341Y-98054315D01*
X127595866Y-98059816D01*
X127528723Y-98127407D01*
X127509520Y-98127407D01*
X127533628Y-98102534D01*
X127546750Y-98086609D01*
X127552565Y-98074556D01*
X127551978Y-98071326D01*
X127551381Y-98068287D01*
X127554629Y-98069788D01*
X127563191Y-98066893D01*
X127578334Y-98055196D01*
X127597263Y-98037607D01*
X127617179Y-98017032D01*
X127635286Y-97996382D01*
X127646199Y-97981981D01*
X127752625Y-97981981D01*
X127757774Y-97992902D01*
X127770186Y-98007733D01*
X127785014Y-98021548D01*
X127797406Y-98029420D01*
X127799793Y-98029888D01*
X127804138Y-98032863D01*
X127803145Y-98034264D01*
X127805946Y-98041241D01*
X127817239Y-98055963D01*
X127834823Y-98075649D01*
X127841278Y-98082398D01*
X127883786Y-98126157D01*
X128001271Y-98126782D01*
X128045694Y-98126897D01*
X128077229Y-98126541D01*
X128097988Y-98125484D01*
X128110085Y-98123497D01*
X128115632Y-98120352D01*
X128116742Y-98115818D01*
X128116547Y-98114280D01*
X128110574Y-98104189D01*
X128105401Y-98103213D01*
X128099952Y-98100821D01*
X128101048Y-98097856D01*
X128098310Y-98089876D01*
X128086191Y-98078947D01*
X128069173Y-98067854D01*
X128051740Y-98059381D01*
X128038374Y-98056315D01*
X128035412Y-98057076D01*
X128030228Y-98058598D01*
X128031686Y-98056350D01*
X128030073Y-98048618D01*
X128017396Y-98037381D01*
X127996731Y-98024145D01*
X127971155Y-98010419D01*
X127943744Y-97997711D01*
X127917575Y-97987529D01*
X127895724Y-97981380D01*
X127881267Y-97980774D01*
X127879237Y-97981622D01*
X127872896Y-97980779D01*
X127872534Y-97978727D01*
X127865702Y-97974302D01*
X127847671Y-97969125D01*
X127822138Y-97964226D01*
X127818364Y-97963649D01*
X127786669Y-97959893D01*
X127766913Y-97960548D01*
X127756492Y-97966340D01*
X127752802Y-97977995D01*
X127752625Y-97981981D01*
X127646199Y-97981981D01*
X127648788Y-97978564D01*
X127654887Y-97966487D01*
X127654991Y-97965413D01*
X127652715Y-97958657D01*
X127643612Y-97956206D01*
X127624269Y-97957463D01*
X127615609Y-97958518D01*
X127579398Y-97964182D01*
X127544188Y-97971417D01*
X127515501Y-97979017D01*
X127504962Y-97982726D01*
X127492926Y-97987347D01*
X127489959Y-97988302D01*
X127446444Y-98003340D01*
X127404409Y-98024320D01*
X127393939Y-98030887D01*
X127375030Y-98043076D01*
X127361734Y-98050870D01*
X127358146Y-98052392D01*
X127350353Y-98056174D01*
X127334576Y-98065773D01*
X127324923Y-98072038D01*
X127305193Y-98087649D01*
X127297135Y-98101764D01*
X127296714Y-98109546D01*
X127201441Y-98109546D01*
X127208639Y-98097552D01*
X127212909Y-98093194D01*
X127231058Y-98084100D01*
X127253028Y-98084593D01*
X127276700Y-98084723D01*
X127287873Y-98078101D01*
X127300284Y-98068894D01*
X127306466Y-98067395D01*
X127317168Y-98063354D01*
X127318675Y-98061154D01*
X127325969Y-98054478D01*
X127342743Y-98042887D01*
X127365415Y-98028851D01*
X127366184Y-98028397D01*
X127388261Y-98014026D01*
X127403650Y-98001372D01*
X127409171Y-97993070D01*
X127409132Y-97992822D01*
X127411801Y-97987546D01*
X127415335Y-97988871D01*
X127426883Y-97989540D01*
X127446213Y-97985207D01*
X127454903Y-97982252D01*
X127485594Y-97971853D01*
X127521334Y-97961400D01*
X127557838Y-97951966D01*
X127590823Y-97944622D01*
X127616003Y-97940440D01*
X127624303Y-97939870D01*
X127648607Y-97932837D01*
X127660817Y-97921543D01*
X127680718Y-97905192D01*
X127704622Y-97897914D01*
X127728223Y-97899579D01*
X127747217Y-97910053D01*
X127756136Y-97924472D01*
X127765932Y-97934882D01*
X127775925Y-97937876D01*
X127804165Y-97942123D01*
X127840900Y-97950598D01*
X127881943Y-97962011D01*
X127923105Y-97975070D01*
X127960198Y-97988484D01*
X127989034Y-98000962D01*
X127999729Y-98006876D01*
X128014202Y-98014830D01*
X128022234Y-98017038D01*
X128030147Y-98020271D01*
X128043250Y-98030166D01*
X128056607Y-98040656D01*
X128064492Y-98044891D01*
X128072251Y-98049239D01*
X128087577Y-98060409D01*
X128100067Y-98070270D01*
X128121811Y-98085904D01*
X128139026Y-98092344D01*
X128155159Y-98092005D01*
X128183899Y-98093630D01*
X128204594Y-98107163D01*
X128215277Y-98130858D01*
X128216236Y-98146298D01*
X128218329Y-98168587D01*
X128225086Y-98189813D01*
X128234535Y-98206062D01*
X128244701Y-98213420D01*
X128249588Y-98212451D01*
X128253752Y-98212328D01*
X128251287Y-98217541D01*
X128249590Y-98224165D01*
X128258691Y-98222279D01*
X128267782Y-98219911D01*
X128264835Y-98225944D01*
X128262753Y-98228505D01*
X128257049Y-98237572D01*
X128262477Y-98239927D01*
X128262943Y-98239929D01*
X128269151Y-98242447D01*
X128268198Y-98244344D01*
X128269201Y-98252690D01*
X128276474Y-98269473D01*
X128284230Y-98283727D01*
X128301108Y-98317228D01*
X128318028Y-98358787D01*
X128333688Y-98404237D01*
X128346781Y-98449409D01*
X128356004Y-98490133D01*
X128360050Y-98522242D01*
X128360130Y-98526192D01*
X128365361Y-98540843D01*
X128378352Y-98558213D01*
X128382635Y-98562493D01*
X128398422Y-98582069D01*
X128405105Y-98600833D01*
X128405139Y-98601998D01*
X128401401Y-98618372D01*
X128392276Y-98635877D01*
X128380899Y-98650077D01*
X128370406Y-98656541D01*
X128367031Y-98655890D01*
X128362254Y-98659212D01*
X128360136Y-98673097D01*
X128360130Y-98674031D01*
X128357658Y-98696119D01*
X128351009Y-98728093D01*
X128341330Y-98765815D01*
X128329771Y-98805145D01*
X128317480Y-98841944D01*
X128305607Y-98872075D01*
X128304448Y-98874648D01*
X128295045Y-98897979D01*
X128289987Y-98916291D01*
X128290075Y-98924520D01*
X128290081Y-98928838D01*
X128286915Y-98927427D01*
X128278591Y-98930163D01*
X128267020Y-98943040D01*
X128262055Y-98950647D01*
X128245918Y-98976093D01*
X128228398Y-99001595D01*
X128226103Y-99004742D01*
X128211287Y-99032978D01*
X128209102Y-99055162D01*
X128204954Y-99081374D01*
X128190085Y-99102277D01*
X128168016Y-99114417D01*
X128147546Y-99115500D01*
X128129493Y-99116185D01*
X128111782Y-99122139D01*
X128098621Y-99131024D01*
X128094218Y-99140502D01*
X128096022Y-99144129D01*
X128096051Y-99146627D01*
X128092378Y-99144880D01*
X128082126Y-99146102D01*
X128063112Y-99153993D01*
X128039084Y-99166941D01*
X128034109Y-99169933D01*
X128010246Y-99184265D01*
X127991667Y-99194913D01*
X127981750Y-99199953D01*
X127981092Y-99200118D01*
X127972638Y-99202942D01*
X127955466Y-99210093D01*
X127945592Y-99214469D01*
X127918841Y-99224694D01*
X127887138Y-99234316D01*
X127872534Y-99237908D01*
X127844966Y-99244303D01*
X127819960Y-99250634D01*
X127809528Y-99253563D01*
X127787646Y-99258466D01*
X127771008Y-99260130D01*
X127754183Y-99266370D01*
X127741948Y-99278884D01*
X127724225Y-99293626D01*
X127700070Y-99298741D01*
X127674590Y-99294194D01*
X127652888Y-99279948D01*
X127652486Y-99279518D01*
X127635962Y-99267313D01*
X127609768Y-99257217D01*
X127577623Y-99249405D01*
X127544770Y-99242051D01*
X127513189Y-99234036D01*
X127489420Y-99227024D01*
X127488381Y-99226671D01*
X127467779Y-99221048D01*
X127452906Y-99219634D01*
X127449921Y-99220436D01*
X127446381Y-99219973D01*
X127448715Y-99215099D01*
X127450001Y-99208432D01*
X127439515Y-99209257D01*
X127438611Y-99209489D01*
X127427753Y-99210301D01*
X127426629Y-99206920D01*
X127425380Y-99200522D01*
X127422965Y-99200118D01*
X127413036Y-99196161D01*
X127394118Y-99185682D01*
X127369508Y-99170768D01*
X127342504Y-99153507D01*
X127316403Y-99135987D01*
X127294503Y-99120295D01*
X127284704Y-99112586D01*
X127267858Y-99101169D01*
X127256457Y-99100785D01*
X127253541Y-99102700D01*
X127237323Y-99107515D01*
X127217081Y-99102795D01*
X127198546Y-99090402D01*
X127195856Y-99087139D01*
X127279222Y-99087139D01*
X127279917Y-99088873D01*
X127305405Y-99109627D01*
X127329364Y-99125866D01*
X127348564Y-99135621D01*
X127359219Y-99137188D01*
X127367052Y-99136419D01*
X127366755Y-99139184D01*
X127370373Y-99146246D01*
X127383839Y-99157838D01*
X127398569Y-99167828D01*
X127423051Y-99181815D01*
X127447011Y-99193485D01*
X127467044Y-99201428D01*
X127479745Y-99204234D01*
X127482457Y-99202560D01*
X127487141Y-99203007D01*
X127493967Y-99207833D01*
X127510461Y-99216332D01*
X127536916Y-99224681D01*
X127568326Y-99231671D01*
X127599686Y-99236094D01*
X127614734Y-99236988D01*
X127635698Y-99235893D01*
X127645715Y-99230574D01*
X127749038Y-99230574D01*
X127759996Y-99235502D01*
X127781970Y-99236519D01*
X127811593Y-99233985D01*
X127845499Y-99228263D01*
X127880320Y-99219711D01*
X127896082Y-99214805D01*
X127933947Y-99200514D01*
X127974146Y-99182712D01*
X128013759Y-99162988D01*
X128049860Y-99142929D01*
X128079528Y-99124120D01*
X128099840Y-99108151D01*
X128106268Y-99100677D01*
X128107407Y-99087760D01*
X128104122Y-99078305D01*
X128099773Y-99072663D01*
X128092160Y-99068844D01*
X128078749Y-99066544D01*
X128057004Y-99065461D01*
X128024391Y-99065293D01*
X127997153Y-99065519D01*
X127897597Y-99066583D01*
X127820529Y-99144066D01*
X127788144Y-99177620D01*
X127764981Y-99203797D01*
X127751733Y-99221759D01*
X127749038Y-99230574D01*
X127645715Y-99230574D01*
X127646197Y-99230318D01*
X127649591Y-99222899D01*
X127648811Y-99209001D01*
X127641775Y-99198518D01*
X127632434Y-99196232D01*
X127629296Y-99198308D01*
X127625702Y-99198429D01*
X127626236Y-99195453D01*
X127622444Y-99187104D01*
X127610831Y-99171429D01*
X127594266Y-99151626D01*
X127575619Y-99130898D01*
X127557759Y-99112442D01*
X127543556Y-99099459D01*
X127536241Y-99095098D01*
X127528693Y-99089498D01*
X127521906Y-99080416D01*
X127517302Y-99074746D01*
X127510134Y-99070770D01*
X127497987Y-99068203D01*
X127484707Y-99067225D01*
X127533653Y-99067225D01*
X127599948Y-99133850D01*
X127626064Y-99159071D01*
X127649222Y-99179550D01*
X127667028Y-99193297D01*
X127677088Y-99198323D01*
X127677496Y-99198287D01*
X127683192Y-99194119D01*
X127686663Y-99182554D01*
X127688360Y-99160938D01*
X127688391Y-99158698D01*
X127708437Y-99158698D01*
X127709822Y-99178230D01*
X127713779Y-99189937D01*
X127720299Y-99196936D01*
X127731554Y-99205062D01*
X127735475Y-99207381D01*
X127741072Y-99202453D01*
X127755139Y-99188813D01*
X127775646Y-99168462D01*
X127800559Y-99143401D01*
X127804446Y-99139464D01*
X127828581Y-99114499D01*
X127847133Y-99094311D01*
X127858519Y-99080706D01*
X127861154Y-99075488D01*
X127860475Y-99075616D01*
X127852663Y-99076518D01*
X127852859Y-99074084D01*
X127847500Y-99071637D01*
X127830158Y-99069759D01*
X127803850Y-99068691D01*
X127783860Y-99068544D01*
X127711252Y-99068842D01*
X127709047Y-99127786D01*
X127708437Y-99158698D01*
X127688391Y-99158698D01*
X127688748Y-99132471D01*
X127688748Y-99068842D01*
X127611200Y-99068034D01*
X127533653Y-99067225D01*
X127484707Y-99067225D01*
X127478447Y-99066764D01*
X127449098Y-99066169D01*
X127407524Y-99066137D01*
X127400099Y-99066164D01*
X127361291Y-99066693D01*
X127328768Y-99067869D01*
X127305007Y-99069543D01*
X127292486Y-99071565D01*
X127291238Y-99072703D01*
X127289183Y-99080207D01*
X127285590Y-99082178D01*
X127279222Y-99087139D01*
X127195856Y-99087139D01*
X127192262Y-99082779D01*
X127183784Y-99056766D01*
G37*
G36*
X127152392Y-98738777D02*
G01*
X127148642Y-98742528D01*
X127144891Y-98738777D01*
X127148642Y-98735027D01*
X127152392Y-98738777D01*
G37*
G36*
X127467454Y-98956320D02*
G01*
X127463704Y-98960071D01*
X127459953Y-98956320D01*
X127463704Y-98952570D01*
X127467454Y-98956320D01*
G37*
G36*
X127332428Y-98281187D02*
G01*
X127328677Y-98284938D01*
X127324926Y-98281187D01*
X127328677Y-98277437D01*
X127332428Y-98281187D01*
G37*
G36*
X127422446Y-99166362D02*
G01*
X127418695Y-99170112D01*
X127414944Y-99166362D01*
X127418695Y-99162611D01*
X127422446Y-99166362D01*
G37*
G36*
X127279917Y-98191170D02*
G01*
X127276167Y-98194920D01*
X127272416Y-98191170D01*
X127276167Y-98187419D01*
X127279917Y-98191170D01*
G37*
G36*
X127474956Y-98333698D02*
G01*
X127471205Y-98337448D01*
X127467454Y-98333698D01*
X127471205Y-98329947D01*
X127474956Y-98333698D01*
G37*
G36*
X127174897Y-99038837D02*
G01*
X127171146Y-99042587D01*
X127167395Y-99038837D01*
X127171146Y-99035086D01*
X127174897Y-99038837D01*
G37*
G36*
X127947549Y-98393710D02*
G01*
X127943798Y-98397460D01*
X127940047Y-98393710D01*
X127943798Y-98389959D01*
X127947549Y-98393710D01*
G37*
G36*
X128300118Y-98521235D02*
G01*
X128296368Y-98524985D01*
X128292617Y-98521235D01*
X128296368Y-98517484D01*
X128300118Y-98521235D01*
G37*
G36*
X128202599Y-98206173D02*
G01*
X128198848Y-98209923D01*
X128195098Y-98206173D01*
X128198848Y-98202422D01*
X128202599Y-98206173D01*
G37*
G36*
X127264915Y-98866303D02*
G01*
X127261164Y-98870053D01*
X127257413Y-98866303D01*
X127261164Y-98862552D01*
X127264915Y-98866303D01*
G37*
G36*
X127264915Y-99128854D02*
G01*
X127261164Y-99132605D01*
X127257413Y-99128854D01*
X127261164Y-99125104D01*
X127264915Y-99128854D01*
G37*
G36*
X127159894Y-99046338D02*
G01*
X127156143Y-99050089D01*
X127152392Y-99046338D01*
X127156143Y-99042587D01*
X127159894Y-99046338D01*
G37*
G36*
X128007561Y-98986326D02*
G01*
X128003810Y-98990077D01*
X128000059Y-98986326D01*
X128003810Y-98982575D01*
X128007561Y-98986326D01*
G37*
G36*
X127084879Y-98528736D02*
G01*
X127081128Y-98532487D01*
X127077378Y-98528736D01*
X127081128Y-98524985D01*
X127084879Y-98528736D01*
G37*
G36*
X127452451Y-98161164D02*
G01*
X127448701Y-98164915D01*
X127444950Y-98161164D01*
X127448701Y-98157413D01*
X127452451Y-98161164D01*
G37*
G36*
X128007561Y-98213674D02*
G01*
X128003810Y-98217425D01*
X128000059Y-98213674D01*
X128003810Y-98209923D01*
X128007561Y-98213674D01*
G37*
G36*
X127264915Y-98851300D02*
G01*
X127261164Y-98855050D01*
X127257413Y-98851300D01*
X127261164Y-98847549D01*
X127264915Y-98851300D01*
G37*
G36*
X127384938Y-98881306D02*
G01*
X127381187Y-98885056D01*
X127377437Y-98881306D01*
X127381187Y-98877555D01*
X127384938Y-98881306D01*
G37*
G36*
X127617484Y-98536238D02*
G01*
X127613733Y-98539988D01*
X127609982Y-98536238D01*
X127613733Y-98532487D01*
X127617484Y-98536238D01*
G37*
G36*
X127482457Y-98941317D02*
G01*
X127478707Y-98945068D01*
X127474956Y-98941317D01*
X127478707Y-98937567D01*
X127482457Y-98941317D01*
G37*
G36*
X127392440Y-98221176D02*
G01*
X127388689Y-98224926D01*
X127384938Y-98221176D01*
X127388689Y-98217425D01*
X127392440Y-98221176D01*
G37*
G36*
X128140234Y-98342294D02*
G01*
X128138837Y-98344950D01*
X128131769Y-98352114D01*
X128130450Y-98352451D01*
X128129938Y-98347606D01*
X128131335Y-98344950D01*
X128138403Y-98337786D01*
X128139722Y-98337448D01*
X128140234Y-98342294D01*
G37*
G36*
X127399941Y-99203869D02*
G01*
X127396190Y-99207620D01*
X127392440Y-99203869D01*
X127396190Y-99200118D01*
X127399941Y-99203869D01*
G37*
G36*
X127107384Y-98558742D02*
G01*
X127103633Y-98562493D01*
X127099882Y-98558742D01*
X127103633Y-98554991D01*
X127107384Y-98558742D01*
G37*
G36*
X127767513Y-97988630D02*
G01*
X127763763Y-97992381D01*
X127760012Y-97988630D01*
X127763763Y-97984879D01*
X127767513Y-97988630D01*
G37*
G36*
X127197401Y-98408713D02*
G01*
X127193650Y-98412463D01*
X127189900Y-98408713D01*
X127193650Y-98404962D01*
X127197401Y-98408713D01*
G37*
G36*
X127835027Y-98048642D02*
G01*
X127831276Y-98052392D01*
X127827525Y-98048642D01*
X127831276Y-98044891D01*
X127835027Y-98048642D01*
G37*
G36*
X127427447Y-98895058D02*
G01*
X127428344Y-98903961D01*
X127427447Y-98905060D01*
X127422987Y-98904030D01*
X127422446Y-98900059D01*
X127425190Y-98893885D01*
X127427447Y-98895058D01*
G37*
G36*
X127962552Y-98161164D02*
G01*
X127958801Y-98164915D01*
X127955050Y-98161164D01*
X127958801Y-98157413D01*
X127962552Y-98161164D01*
G37*
G36*
X128127584Y-99001329D02*
G01*
X128123834Y-99005080D01*
X128120083Y-99001329D01*
X128123834Y-98997578D01*
X128127584Y-99001329D01*
G37*
G36*
X127347431Y-98978825D02*
G01*
X127343680Y-98982575D01*
X127339929Y-98978825D01*
X127343680Y-98975074D01*
X127347431Y-98978825D01*
G37*
G36*
X127519965Y-99091347D02*
G01*
X127516214Y-99095098D01*
X127512463Y-99091347D01*
X127516214Y-99087596D01*
X127519965Y-99091347D01*
G37*
G36*
X127437448Y-99181365D02*
G01*
X127433698Y-99185115D01*
X127429947Y-99181365D01*
X127433698Y-99177614D01*
X127437448Y-99181365D01*
G37*
G36*
X127594979Y-98738777D02*
G01*
X127591229Y-98742528D01*
X127587478Y-98738777D01*
X127591229Y-98735027D01*
X127594979Y-98738777D01*
G37*
G36*
X127910042Y-98003633D02*
G01*
X127906291Y-98007384D01*
X127902540Y-98003633D01*
X127906291Y-97999882D01*
X127910042Y-98003633D01*
G37*
G36*
X127617484Y-99278884D02*
G01*
X127613733Y-99282635D01*
X127609982Y-99278884D01*
X127613733Y-99275133D01*
X127617484Y-99278884D01*
G37*
G36*
X128060071Y-98078648D02*
G01*
X128056320Y-98082398D01*
X128052570Y-98078648D01*
X128056320Y-98074897D01*
X128060071Y-98078648D01*
G37*
G36*
X128142587Y-98041140D02*
G01*
X128138837Y-98044891D01*
X128135086Y-98041140D01*
X128138837Y-98037389D01*
X128142587Y-98041140D01*
G37*
G36*
X127279917Y-98858801D02*
G01*
X127276167Y-98862552D01*
X127272416Y-98858801D01*
X127276167Y-98855050D01*
X127279917Y-98858801D01*
G37*
G36*
X127182398Y-98498730D02*
G01*
X127178648Y-98502481D01*
X127174897Y-98498730D01*
X127178648Y-98494979D01*
X127182398Y-98498730D01*
G37*
G36*
X127422446Y-98258683D02*
G01*
X127418695Y-98262434D01*
X127414944Y-98258683D01*
X127418695Y-98254932D01*
X127422446Y-98258683D01*
G37*
G36*
X127279917Y-99121353D02*
G01*
X127276167Y-99125104D01*
X127272416Y-99121353D01*
X127276167Y-99117602D01*
X127279917Y-99121353D01*
G37*
G36*
X127542469Y-98791288D02*
G01*
X127538718Y-98795039D01*
X127534968Y-98791288D01*
X127538718Y-98787537D01*
X127542469Y-98791288D01*
G37*
G36*
X127449951Y-99030085D02*
G01*
X127450849Y-99038987D01*
X127449951Y-99040087D01*
X127445491Y-99039057D01*
X127444950Y-99035086D01*
X127447695Y-99028911D01*
X127449951Y-99030085D01*
G37*
G36*
X128022564Y-98881306D02*
G01*
X128018813Y-98885056D01*
X128015062Y-98881306D01*
X128018813Y-98877555D01*
X128022564Y-98881306D01*
G37*
G36*
X128015062Y-98228677D02*
G01*
X128011311Y-98232428D01*
X128007561Y-98228677D01*
X128011311Y-98224926D01*
X128015062Y-98228677D01*
G37*
G36*
X127512463Y-99023834D02*
G01*
X127508713Y-99027584D01*
X127504962Y-99023834D01*
X127508713Y-99020083D01*
X127512463Y-99023834D01*
G37*
G36*
X127339929Y-98258683D02*
G01*
X127336179Y-98262434D01*
X127332428Y-98258683D01*
X127336179Y-98254932D01*
X127339929Y-98258683D01*
G37*
G36*
X127947549Y-99046338D02*
G01*
X127943798Y-99050089D01*
X127940047Y-99046338D01*
X127943798Y-99042587D01*
X127947549Y-99046338D01*
G37*
G36*
X127309923Y-98056143D02*
G01*
X127306173Y-98059894D01*
X127302422Y-98056143D01*
X127306173Y-98052392D01*
X127309923Y-98056143D01*
G37*
G36*
X126994861Y-97883609D02*
G01*
X126991111Y-97887360D01*
X126987360Y-97883609D01*
X126991111Y-97879858D01*
X126994861Y-97883609D01*
G37*
G36*
X127970053Y-99023834D02*
G01*
X127966303Y-99027584D01*
X127962552Y-99023834D01*
X127966303Y-99020083D01*
X127970053Y-99023834D01*
G37*
G36*
X128307620Y-98678766D02*
G01*
X128303869Y-98682516D01*
X128300118Y-98678766D01*
X128303869Y-98675015D01*
X128307620Y-98678766D01*
G37*
G36*
X126987967Y-97849853D02*
G01*
X128417527Y-97849853D01*
X128433837Y-97867214D01*
X128450148Y-97884576D01*
X128450148Y-99317320D01*
X128405746Y-99350148D01*
X126988694Y-99350148D01*
X126969273Y-99327068D01*
X126949853Y-99303988D01*
X126949853Y-98716547D01*
X126957925Y-98716547D01*
X126958000Y-98802302D01*
X126958172Y-98884650D01*
X126958443Y-98962175D01*
X126958813Y-99033461D01*
X126959285Y-99097091D01*
X126959861Y-99151650D01*
X126960543Y-99195721D01*
X126961332Y-99227889D01*
X126962230Y-99246736D01*
X126962234Y-99246790D01*
X126965659Y-99277083D01*
X126969842Y-99295338D01*
X126974444Y-99300092D01*
X126974577Y-99300016D01*
X126978477Y-99300150D01*
X126976121Y-99305118D01*
X126973329Y-99310044D01*
X126971977Y-99314400D01*
X126972912Y-99318221D01*
X126976981Y-99321541D01*
X126985032Y-99324396D01*
X126997912Y-99326820D01*
X127016469Y-99328850D01*
X127041551Y-99330520D01*
X127074006Y-99331865D01*
X127114679Y-99332920D01*
X127164421Y-99333721D01*
X127224077Y-99334302D01*
X127294496Y-99334699D01*
X127376525Y-99334947D01*
X127471011Y-99335080D01*
X127578803Y-99335135D01*
X127700748Y-99335145D01*
X128404532Y-99335145D01*
X128423589Y-99314592D01*
X128442646Y-99294040D01*
X128442646Y-97904588D01*
X128420077Y-97880971D01*
X128397507Y-97857354D01*
X127701810Y-97857521D01*
X127580555Y-97857495D01*
X127473424Y-97857418D01*
X127379542Y-97857386D01*
X127298031Y-97857493D01*
X127228015Y-97857834D01*
X127168615Y-97858503D01*
X127118956Y-97859595D01*
X127078159Y-97861205D01*
X127045349Y-97863427D01*
X127019648Y-97866357D01*
X127000179Y-97870088D01*
X126986065Y-97874717D01*
X126976430Y-97880336D01*
X126970395Y-97887042D01*
X126967084Y-97894929D01*
X126965620Y-97904091D01*
X126965126Y-97914623D01*
X126964725Y-97926621D01*
X126963896Y-97937211D01*
X126962953Y-97953392D01*
X126962085Y-97983159D01*
X126961294Y-98025097D01*
X126960582Y-98077789D01*
X126959949Y-98139819D01*
X126959399Y-98209772D01*
X126958933Y-98286230D01*
X126958553Y-98367778D01*
X126958260Y-98453000D01*
X126958057Y-98540480D01*
X126957944Y-98628801D01*
X126957925Y-98716547D01*
X126949853Y-98716547D01*
X126949853Y-97890957D01*
X126987967Y-97849853D01*
G37*
G36*
X128007561Y-97981128D02*
G01*
X128003810Y-97984879D01*
X128000059Y-97981128D01*
X128003810Y-97977378D01*
X128007561Y-97981128D01*
G37*
G36*
X128397637Y-97883609D02*
G01*
X128393887Y-97887360D01*
X128390136Y-97883609D01*
X128393887Y-97879858D01*
X128397637Y-97883609D01*
G37*
G36*
X127309923Y-99158860D02*
G01*
X127306173Y-99162611D01*
X127302422Y-99158860D01*
X127306173Y-99155109D01*
X127309923Y-99158860D01*
G37*
G36*
X128240106Y-98948819D02*
G01*
X128236356Y-98952570D01*
X128232605Y-98948819D01*
X128236356Y-98945068D01*
X128240106Y-98948819D01*
G37*
G36*
X127084879Y-98926314D02*
G01*
X127081128Y-98930065D01*
X127077378Y-98926314D01*
X127081128Y-98922564D01*
X127084879Y-98926314D01*
G37*
G36*
X127302422Y-98761282D02*
G01*
X127298671Y-98765033D01*
X127294920Y-98761282D01*
X127298671Y-98757531D01*
X127302422Y-98761282D01*
G37*
G36*
X127324926Y-98911311D02*
G01*
X127321176Y-98915062D01*
X127317425Y-98911311D01*
X127321176Y-98907561D01*
X127324926Y-98911311D01*
G37*
G36*
X127279917Y-99143857D02*
G01*
X127276167Y-99147608D01*
X127272416Y-99143857D01*
X127276167Y-99140106D01*
X127279917Y-99143857D01*
G37*
G36*
X127317425Y-98041140D02*
G01*
X127313674Y-98044891D01*
X127309923Y-98041140D01*
X127313674Y-98037389D01*
X127317425Y-98041140D01*
G37*
G36*
X127279917Y-98206173D02*
G01*
X127276167Y-98209923D01*
X127272416Y-98206173D01*
X127276167Y-98202422D01*
X127279917Y-98206173D01*
G37*
G36*
X127219906Y-98731276D02*
G01*
X127216155Y-98735027D01*
X127212404Y-98731276D01*
X127216155Y-98727525D01*
X127219906Y-98731276D01*
G37*
G36*
X128195098Y-98731276D02*
G01*
X128191347Y-98735027D01*
X128187596Y-98731276D01*
X128191347Y-98727525D01*
X128195098Y-98731276D01*
G37*
G36*
X127227407Y-98206173D02*
G01*
X127223656Y-98209923D01*
X127219906Y-98206173D01*
X127223656Y-98202422D01*
X127227407Y-98206173D01*
G37*
G36*
X127317425Y-98356202D02*
G01*
X127313674Y-98359953D01*
X127309923Y-98356202D01*
X127313674Y-98352451D01*
X127317425Y-98356202D01*
G37*
G36*
X127488800Y-97995415D02*
G01*
X127496790Y-98002388D01*
X127497460Y-98004075D01*
X127493900Y-98007159D01*
X127486488Y-98000250D01*
X127485492Y-97998723D01*
X127484608Y-97993590D01*
X127488800Y-97995415D01*
G37*
G36*
X127197401Y-98701270D02*
G01*
X127193650Y-98705021D01*
X127189900Y-98701270D01*
X127193650Y-98697519D01*
X127197401Y-98701270D01*
G37*
G36*
X127384938Y-99211371D02*
G01*
X127381187Y-99215121D01*
X127377437Y-99211371D01*
X127381187Y-99207620D01*
X127384938Y-99211371D01*
G37*
G36*
X127212404Y-98993828D02*
G01*
X127208653Y-98997578D01*
X127204903Y-98993828D01*
X127208653Y-98990077D01*
X127212404Y-98993828D01*
G37*
G36*
X127805021Y-98461223D02*
G01*
X127801270Y-98464974D01*
X127797519Y-98461223D01*
X127801270Y-98457472D01*
X127805021Y-98461223D01*
G37*
D10*
G04 #@! TO.C,R3*
X129537742Y-102622500D02*
X130012258Y-102622500D01*
X129537742Y-101577500D02*
X130012258Y-101577500D01*
G04 #@! TO.C,R2*
X130146250Y-104375242D02*
X130146250Y-104849758D01*
X131191250Y-104375242D02*
X131191250Y-104849758D01*
G04 #@! TO.C,R1*
X134922500Y-102537258D02*
X134922500Y-102062742D01*
X133877500Y-102537258D02*
X133877500Y-102062742D01*
G04 #@! TO.C,D2*
X128233750Y-103812500D02*
X128233750Y-106097500D01*
X129703750Y-106097500D02*
X129703750Y-103812500D01*
X128233750Y-106097500D02*
X129703750Y-106097500D01*
G04 #@! TO.C,D1*
X135135000Y-100012500D02*
X135135000Y-97727500D01*
X133665000Y-97727500D02*
X133665000Y-100012500D01*
X135135000Y-97727500D02*
X133665000Y-97727500D01*
G04 #@! TO.C,C1*
X133488748Y-104290000D02*
X134911252Y-104290000D01*
X133488748Y-106110000D02*
X134911252Y-106110000D01*
G04 #@! TD*
M02*
