M48
; DRILL file {KiCad (6.0.4)} date Sat Feb 11 01:04:55 2023
; FORMAT={-:-/ absolute / inch / decimal}
; #@! TF.CreationDate,2023-02-11T01:04:55-08:00
; #@! TF.GenerationSoftware,Kicad,Pcbnew,(6.0.4)
; #@! TF.FileFunction,MixedPlating,1,2
FMAT,2
INCH
; #@! TA.AperFunction,Plated,PTH,ViaDrill
T1C0.0157
%
G90
G05
T1
X5.0157Y-4.0787
X5.0157Y-4.122
X5.0157Y-4.1693
X5.0236Y-3.9488
X5.1181Y-3.8661
X5.1693Y-3.8661
X5.1811Y-3.9331
X5.1811Y-3.9882
X5.1811Y-4.0354
X5.2283Y-3.8661
X5.2283Y-3.9331
X5.2283Y-3.9882
X5.2283Y-4.0354
X5.3425Y-3.937
X5.3425Y-3.9882
X5.3465Y-3.8661
X5.3976Y-3.8661
X5.3976Y-3.937
X5.3976Y-4.1102
X5.3976Y-4.1614
T0
M30
